<?xml version="1.0" encoding="UTF-8"?>
<svg id="hint" xmlns="http://www.w3.org/2000/svg" version="1.1" viewBox="0 0 1080 1080">
  <path class="inner" d="M540,33.8c-215.1,0-389.6,174.4-389.6,389.6s.2,8,.6,12.4c0,1.1.2,2.1.3,3.2.4,3.6.8,7.3,1.4,11.1.3,2.3.7,4.7,1.1,7,0,.2,0,.4,0,.5,26.7,152.3,197.4,491.4,197.4,491.4h377.4s170.7-339.1,197.4-491.4c0-.2,0-.4,0-.5.4-2.4.8-4.7,1.1-7,.6-3.9,1-7.6,1.4-11.1.1-1.1.2-2.2.3-3.2.4-4.4.6-8.5.6-12.4,0-215.1-174.4-389.6-389.6-389.6h0ZM838.2,429.1c-4.5,122.3-147.7,426.6-147.7,426.6h-301s-143.2-304.3-147.7-426.6c0-1.9-.1-3.8-.1-5.7,0-164.7,133.5-298.3,298.3-298.3s298.3,133.5,298.3,298.3,0,3.7-.1,5.7Z"/>
  <rect class="inner" x="385.2" y="993.7" width="309.5" height="64.5"/>
  <path class="inner" d="M544.4,518.4s-2.4-93.6,52.6-98.2c87.8-7.3,87.7,97.3,84.1,136.1-5.7,60.2-40.2,280.1-40.2,280.1h22.8s42.3-218.5,49.3-292.3c4.5-47.6,3.5-160.6-104.5-160.1-30.4.1-52.5,13-68.6,31.3-16.1-18.3-38.2-31.2-68.6-31.3-108-.5-109,112.5-104.5,160.1,7,73.8,49.3,292.3,49.3,292.3h22.8s-34.5-219.9-40.2-280.1c-3.7-38.8-3.7-143.5,84.1-136.1,55,4.6,52.6,98.2,52.6,98.2h8.9Z"/>
</svg>