<?xml version="1.0" encoding="UTF-8"?>
<svg id="reset" xmlns="http://www.w3.org/2000/svg" viewBox="0 0 1080 1080">
  <defs>
    <style>
      .inner {
        fill: #fff;
      }
    </style>
  </defs>
  <path class="inner" d="M761.88,722.09l43.33,43.33-134.01,20.26-64.7,9.78,15.21-100.59,14.83-98.11,52.47,52.46c37.48-37.87,60.64-89.97,60.64-147.48,0-115.78-93.86-209.64-209.64-209.64s-209.65,93.86-209.65,209.64c0,67.7,32.09,127.91,81.89,166.24l-51.84,89.78c-80.5-56.57-133.11-150.15-133.11-256.02,0-172.7,140-312.7,312.71-312.7s312.7,140,312.7,312.7c0,85.97-34.69,163.83-90.83,220.35Z"/>
</svg>