<?xml version="1.0" encoding="UTF-8"?>
<svg id="hint" xmlns="http://www.w3.org/2000/svg" viewBox="0 0 1080 1080">
  <defs>
    <style>
      .inner {
        fill: #fff;
      }
    </style>
  </defs>
  <path class="inner" d="M534.69,126.56c-161.92,0-293.18,131.26-293.18,293.18,0,2.93.14,6.05.42,9.35.07.8.14,1.61.22,2.44.27,2.68.63,5.47,1.06,8.37.26,1.73.54,3.5.85,5.3.03.14.05.27.07.41,20.08,114.6,148.54,369.8,148.54,369.8h284.04s128.46-255.2,148.54-369.8c.03-.13.05-.27.07-.41.31-1.8.59-3.57.85-5.3.43-2.9.78-5.69,1.06-8.37.08-.83.15-1.64.22-2.44.28-3.31.42-6.43.42-9.35,0-161.92-131.26-293.18-293.18-293.18ZM759.11,424.02c-3.37,92.04-111.15,321.09-111.15,321.09h-226.54s-107.78-229.05-111.15-321.09c-.05-1.46-.08-2.89-.08-4.28,0-123.99,100.51-224.5,224.5-224.5s224.5,100.51,224.5,224.5c0,1.39-.03,2.82-.08,4.28Z"/>
  <rect class="inner" x="418.21" y="848.98" width="232.95" height="48.52"/>
  <path class="inner" d="M538.03,491.26s-1.79-70.46,39.61-73.91c66.05-5.51,66.03,73.26,63.26,102.46-4.29,45.27-30.25,210.79-30.25,210.79h17.19s31.84-164.45,37.1-219.97c3.39-35.81,2.65-120.84-78.63-120.5-22.87.1-39.51,9.75-51.62,23.56-12.11-13.81-28.75-23.46-51.62-23.56-81.28-.34-82.02,84.69-78.63,120.5,5.26,55.52,37.1,219.97,37.1,219.97h17.19s-25.96-165.52-30.25-210.79c-2.77-29.2-2.79-107.97,63.26-102.46,41.4,3.46,39.61,73.91,39.61,73.91h6.68Z"/>
</svg>